<?xml version="1.0" encoding="UTF-8" standalone="no"?>
<!-- Created with Inkscape (http://www.inkscape.org/) -->

<svg
   version="1.1"
   id="svg1"
   width="481.88235"
   height="481.88235"
   viewBox="0 0 481.88235 481.88235"
   sodipodi:docname="arrowbro.svg"
   inkscape:version="1.3.2 (091e20e, 2023-11-25, custom)"
   xmlns:inkscape="http://www.inkscape.org/namespaces/inkscape"
   xmlns:sodipodi="http://sodipodi.sourceforge.net/DTD/sodipodi-0.dtd"
   xmlns="http://www.w3.org/2000/svg"
   xmlns:svg="http://www.w3.org/2000/svg">
  <defs
     id="defs1" />
  <sodipodi:namedview
     id="namedview1"
     pagecolor="#ffffff"
     bordercolor="#000000"
     borderopacity="0.25"
     inkscape:showpageshadow="2"
     inkscape:pageopacity="0.0"
     inkscape:pagecheckerboard="0"
     inkscape:deskcolor="#d1d1d1"
     inkscape:zoom="1.2700195"
     inkscape:cx="240.54748"
     inkscape:cy="240.94118"
     inkscape:window-width="1368"
     inkscape:window-height="850"
     inkscape:window-x="-6"
     inkscape:window-y="-6"
     inkscape:window-maximized="1"
     inkscape:current-layer="g1" />
  <g
     inkscape:groupmode="layer"
     inkscape:label="Image"
     id="g1">
    <path
       style="fill:#ffffff;stroke-width:0.978898"
       d="m 235.81275,391.21497 c -2.57488,-0.63354 -6.48651,-2.24078 -8.69251,-3.57166 -5.79945,-3.49879 -211.519395,-212.59042 -213.79276,-217.29674 -9.8545606,-20.401 1.416303,-43.48018 23.350403,-47.8143 6.598234,-1.3038 14.536163,-0.15788 20.793771,3.00178 2.401928,1.21281 35.421097,34.00188 94.951696,94.29005 l 91.26918,92.43064 91.73101,-92.87815 c 86.1522,-87.22956 92.03926,-92.99232 96.79946,-94.75555 7.36906,-2.72958 12.71913,-3.31023 18.84119,-2.04487 21.6851,4.48209 32.78099,27.52592 23.00204,47.7704 -2.26309,4.68505 -207.99139,213.79667 -213.76445,217.27991 -4.25994,2.57029 -12.56928,4.9102 -17.06243,4.80478 -1.50975,-0.0354 -4.85173,-0.58276 -7.4266,-1.21629 z"
       id="path1" />
  </g>
</svg>
